# xmcd
#
# Track frame offsets:
#	150
#	19977
#	35238
#	56497
#	74063
#	87014
#	104742
#	118764
#	138770
#	154750
#
# Disc length: 2224 seconds
#
# Revision: 1
# Processed by: cddbd v1.4PL0 Copyright (c) Steve Scherf et al.
# Submitted via: EasyCDDAExtractor 5.0.6
#
DISCID=8f08ae0a
DTITLE=Chris Whitley - Hotel Vast Horizon
DYEAR=2003
DGENRE=Blues
TTITLE0=New Lost World
TTITLE1=Breaking Your Fall
TTITLE2=Frontier
TTITLE3=Hotel Vast Horizon
TTITLE4=Blues For Andre
TTITLE5=Assassin Song
TTITLE6=Wide Open Return
TTITLE7=Silhouette
TTITLE8=Insurrection at Newtown
TTITLE9=Free Interval
EXTD=
EXTT0=
EXTT1=
EXTT2=
EXTT3=
EXTT4=
EXTT5=
EXTT6=
EXTT7=
EXTT8=
EXTT9=
PLAYORDER=
